<svg width="963" height="1223" viewBox="0 0 963 1223" fill="none" xmlns="http://www.w3.org/2000/svg">
<g filter="url(#filter0_f_140_243)">
<path d="M862.298 970.272C-53.0676 795.701 -188.269 295.296 -165.5 100.07C-228.533 631.5 439.702 1025.41 816.183 1122.34L862.298 970.272Z" fill="url(#paint0_linear_140_243)"/>
<path d="M862.298 970.272C-53.0676 795.701 -188.269 295.296 -165.5 100.07C-228.533 631.5 439.702 1025.41 816.183 1122.34L862.298 970.272Z" fill="url(#paint1_linear_140_243)"/>
</g>
<g filter="url(#filter1_f_140_243)">
<ellipse cx="95.4716" cy="77.716" rx="95.4716" ry="77.716" transform="matrix(-0.998882 -0.0472751 -0.0472751 0.998882 863.907 953.005)" fill="white"/>
</g>
<defs>
<filter id="filter0_f_140_243" x="-269.661" y="0.0703125" width="1231.96" height="1222.27" filterUnits="userSpaceOnUse" color-interpolation-filters="sRGB">
<feFlood flood-opacity="0" result="BackgroundImageFix"/>
<feBlend mode="normal" in="SourceGraphic" in2="BackgroundImageFix" result="shape"/>
<feGaussianBlur stdDeviation="50" result="effect1_foregroundBlur_140_243"/>
</filter>
<filter id="filter1_f_140_243" x="599.431" y="878.358" width="330.874" height="295.525" filterUnits="userSpaceOnUse" color-interpolation-filters="sRGB">
<feFlood flood-opacity="0" result="BackgroundImageFix"/>
<feBlend mode="normal" in="SourceGraphic" in2="BackgroundImageFix" result="shape"/>
<feGaussianBlur stdDeviation="35" result="effect1_foregroundBlur_140_243"/>
</filter>
<linearGradient id="paint0_linear_140_243" x1="-159.991" y1="84.442" x2="1074.38" y2="717.007" gradientUnits="userSpaceOnUse">
<stop stop-color="#FF4900"/>
<stop offset="1" stop-color="#FF6B00"/>
</linearGradient>
<linearGradient id="paint1_linear_140_243" x1="396.692" y1="92.6919" x2="353.11" y2="1013.55" gradientUnits="userSpaceOnUse">
<stop offset="0.24183" stop-color="white"/>
<stop offset="1" stop-color="#FF4900"/>
</linearGradient>
</defs>
</svg>
