<svg width="1282" height="1038" viewBox="0 0 1282 1038" fill="none" xmlns="http://www.w3.org/2000/svg">
<g filter="url(#filter0_f_140_215)">
<path d="M1107.79 587.002C326.779 626.892 47.5816 80.5046 -1.88325 -152.709C131.937 482.41 851.618 795.685 1181.51 808.516L1107.79 587.002Z" fill="url(#paint0_linear_140_215)"/>
<path d="M1107.79 587.002C326.779 626.892 47.5816 80.5046 -1.88325 -152.709C131.937 482.41 851.618 795.685 1181.51 808.516L1107.79 587.002Z" fill="url(#paint1_linear_140_215)"/>
</g>
<g filter="url(#filter1_f_140_215)">
<ellipse cx="59.8282" cy="101.893" rx="59.8282" ry="101.893" transform="matrix(-0.967395 0.253274 0.253274 0.967395 1118.17 576.41)" fill="white"/>
</g>
<defs>
<filter id="filter0_f_140_215" x="-101.883" y="-252.709" width="1383.4" height="1161.23" filterUnits="userSpaceOnUse" color-interpolation-filters="sRGB">
<feFlood flood-opacity="0" result="BackgroundImageFix"/>
<feBlend mode="normal" in="SourceGraphic" in2="BackgroundImageFix" result="shape"/>
<feGaussianBlur stdDeviation="50" result="effect1_foregroundBlur_140_215"/>
</filter>
<filter id="filter1_f_140_215" x="972.711" y="540.391" width="226.772" height="299.486" filterUnits="userSpaceOnUse" color-interpolation-filters="sRGB">
<feFlood flood-opacity="0" result="BackgroundImageFix"/>
<feBlend mode="normal" in="SourceGraphic" in2="BackgroundImageFix" result="shape"/>
<feGaussianBlur stdDeviation="25" result="effect1_foregroundBlur_140_215"/>
</filter>
<linearGradient id="paint0_linear_140_215" x1="-2.94008" y1="-172.358" x2="1203.24" y2="-118.252" gradientUnits="userSpaceOnUse">
<stop stop-color="#FF4900"/>
<stop offset="1" stop-color="#FF6B00"/>
</linearGradient>
<linearGradient id="paint1_linear_140_215" x1="438.232" y1="-310.554" x2="721.799" y2="772.546" gradientUnits="userSpaceOnUse">
<stop offset="0.24183" stop-color="white"/>
<stop offset="1" stop-color="#FF4900"/>
</linearGradient>
</defs>
</svg>
